<svg xmlns="http://www.w3.org/2000/svg" width="24" height="24" viewBox="0 0 24 24" fill="none">
  <!-- Dark outline for contrast on any background -->
  <g stroke="#000" stroke-width="3.5" stroke-linecap="round" stroke-linejoin="round" opacity="0.4">
    <path d="M18 11V6a2 2 0 0 0-2-2 2 2 0 0 0-2 2"/>
    <path d="M14 10V4a2 2 0 0 0-2-2 2 2 0 0 0-2 2v2"/>
    <path d="M10 10.5V6a2 2 0 0 0-2-2 2 2 0 0 0-2 2v8"/>
    <path d="M18 8a2 2 0 1 1 4 0v6a8 8 0 0 1-8 8h-2c-3.3 0-6-2.7-6-6"/>
  </g>
  <!-- Gold main layer -->
  <g stroke="#d4af37" stroke-width="2" stroke-linecap="round" stroke-linejoin="round">
    <path d="M18 11V6a2 2 0 0 0-2-2 2 2 0 0 0-2 2"/>
    <path d="M14 10V4a2 2 0 0 0-2-2 2 2 0 0 0-2 2v2"/>
    <path d="M10 10.5V6a2 2 0 0 0-2-2 2 2 0 0 0-2 2v8"/>
    <path d="M18 8a2 2 0 1 1 4 0v6a8 8 0 0 1-8 8h-2c-3.3 0-6-2.7-6-6"/>
  </g>
</svg>
